PathFileType	4	(X/Y/Z)	RBDS08\RBDS08runT25.trc
DataRate	CameraRate	NumFrames	NumMarkers	Units	OrigDataRate	OrigDataStartFrame	OrigNumFrames
150.000000	150.000000	6	33	mm	150.000000	1125	4500
Frame#	Time	L.ASIS			L.Heel.Bottom			L.Heel.Lateral			L.Heel.Top			L.Iliac.Crest			L.MT1			L.MT5			L.PSIS			L.Shank.Bottom.Lateral			L.Shank.Bottom.Medial			L.Shank.Top.Lateral			L.Shank.Top.Medial			L.Thigh.Bottom.Lateral			L.Thigh.Bottom.Medial			L.Thigh.Top.Lateral			L.Thigh.Top.Medial			R.ASIS			R.ASY			R.Heel.Bottom			R.Heel.Lateral			R.Heel.Top			R.Iliac.Crest			R.MT1			R.MT5			R.PSIS			R.Shank.Bottom.Lateral			R.Shank.Bottom.Medial			R.Shank.Top.Lateral			R.Shank.Top.Medial			R.Thigh.Bottom.Lateral			R.Thigh.Bottom.Medial			R.Thigh.Top.Lateral			R.Thigh.Top.Medial			
		X1	Y1	Z1	X2	Y2	Z2	X3	Y3	Z3	X4	Y4	Z4	X5	Y5	Z5	X6	Y6	Z6	X7	Y7	Z7	X8	Y8	Z8	X9	Y9	Z9	X10	Y10	Z10	X11	Y11	Z11	X12	Y12	Z12	X13	Y13	Z13	X14	Y14	Z14	X15	Y15	Z15	X16	Y16	Z16	X17	Y17	Z17	X18	Y18	Z18	X19	Y19	Z19	X20	Y20	Z20	X21	Y21	Z21	X22	Y22	Z22	X23	Y23	Z23	X24	Y24	Z24	X25	Y25	Z25	X26	Y26	Z26	X27	Y27	Z27	X28	Y28	Z28	X29	Y29	Z29	X30	Y30	Z30	X31	Y31	Z31	X32	Y32	Z32	X33	Y33	Z33	

1126	7.500000000000001	2078.45194211245	1013.059365259816	904.9117358475135	1561.569133072251	127.6690263470712	959.5711613959628	1602.101384479235	129.58986580232	919.7537923891236	1594.340922661026	166.9607114917941	967.0821760414238	2033.596524033526	1087.179539267588	882.6601910187015	1764.180176275577	49.57453217756699	1024.004104514154	1733.970587539744	52.57981974558305	915.7982195855097	1915.909055853387	1056.842961551065	984.7321609020395	1694.170275947256	214.8619481436379	920.0556527956546	1657.699265074149	237.8626705068178	948.2478125653066	1727.446035155397	286.1613645525552	900.0903228645932	1694.418682278274	312.0478993729818	933.0660291217956	1913.584521920127	648.5256818266508	859.0028342499708	1856.019970292175	657.8044421989542	902.9343046766013	1920.846096595603	758.7305229585238	848.9637085963998	1869.503081881881	767.0499906694433	896.2114966711578	2094.530658781865	1016.08321482974	1131.654313895891	2073.82161009843	205.5104461021707	1088.464954890523	1882.869490374816	225.2904222827859	1061.891533946806	1910.394268414737	234.7586164952624	1105.288678661816	1915.050130339186	263.5620905836295	1056.941267852777	2038.142199771354	1086.818697132569	1171.613649197879	2091.719884636607	134.8702465209332	1058.342097078939	2050.101773549154	160.8679475186565	1155.763023273143	1922.033752205415	1057.058094274719	1086.403460239697	2013.947285474974	337.2398258125938	1109.790047760048	1997.424899751224	349.5396634389869	1059.069244737886	2052.643176864641	408.7740561341718	1111.854243952495	2038.801886491142	418.1255618125464	1060.838386144562	2210.601339685832	665.7423705136473	1151.243529417161	2157.101672973508	631.5152154305266	1115.100053890435	2140.360237133551	747.1155713941665	1177.731017686336	2089.462860982996	713.1614267656479	1146.20889299961	
1127	7.506666666666667	2080.326895428702	1015.85766761906	905.7511980613494	1551.384029804238	138.4397891380485	960.6836555472923	1591.820128331	138.3308419687768	920.6705963240471	1585.976831298575	176.1089603186113	967.97423400435	2036.081924750028	1091.013690355798	883.3904808731795	1750.161601130751	49.9681297036306	1024.104763273041	1719.480423324395	54.61423395864181	915.8816710714331	1917.616270519422	1060.620929432511	984.4373941528549	1684.652484776799	221.468104434086	920.3160610555612	1648.736982233705	244.3939055564919	949.263191063055	1718.091418446946	292.7705246220413	900.5956409861385	1685.684890478615	318.5202581817764	934.2494808667076	1909.420758164095	653.3898556758969	859.0834163862922	1851.964866651604	663.7704335013042	902.9437001486949	1918.7695344785	763.4225070844242	849.2404895014232	1867.66335593156	772.6479731080836	896.5046861107985	2095.417469068914	1020.532312744064	1132.101661451223	2094.085136711817	199.9674009708197	1088.157913997158	1902.626060265266	207.9674494369666	1058.85279192784	1928.851427413512	219.1809630061674	1102.618711421511	1932.524470661113	248.183921453807	1054.28408146016	2038.873916777351	1091.695240940214	1171.549488891995	2116.995327547651	130.5730278835849	1058.648652001298	2072.277505030079	154.0420137594393	1155.257868937805	1923.279646733091	1061.505684255613	1086.285444950997	2026.616360986602	327.8036892093453	1108.310498470367	2009.968350058449	339.2108160037832	1057.427269812136	2061.224880409829	401.3820442366176	1110.808059483856	2047.594287395637	409.958378275154	1059.55071698941	2210.60989530971	669.9502518828361	1151.60889662742	2156.686266302835	635.5772850578491	1116.193267186125	2140.55252246121	751.5811922819266	1178.068790925788	2089.504844844362	717.5899924242183	1146.942947430723	
1128	7.513333333333334	2082.244375480087	1018.639100000142	906.6032307530986	1542.10781393237	149.5512496150207	961.7741818725964	1582.292884086031	147.3322960994435	921.5564785923132	1578.488559749572	185.4720780044522	968.7899842265722	2038.44286542942	1094.732788094556	884.114237484877	1736.496512428097	50.7026380560856	1024.128480455503	1705.366323735087	56.89859038303639	915.924388632225	1919.293180573989	1064.212353123099	984.1680062067285	1675.895530113319	228.0820117755154	920.4468934382138	1640.575407914605	250.9125334464978	950.1859416121611	1709.543956980797	299.3766629749476	901.018266080539	1677.805375296018	324.9792557362867	935.3783211638615	1905.869866382913	658.1536987676029	859.1051326464491	1848.518098286204	669.5426735726654	902.8875113367088	1917.098954209935	767.9874392272709	849.4491915811086	1866.266137910735	778.0322295501568	896.7558254648663	2096.249849122259	1024.66795865983	1132.593213961573	2114.134571757343	194.71294392587	1087.763691092996	1922.82825130208	191.0827191432321	1056.051867158432	1947.735747856354	203.9039975511166	1100.148041503616	1950.330643384134	233.0863633182037	1051.831828632168	2039.603768230126	1096.361391562673	1171.495452316434	2141.910619289427	126.8663885481321	1058.792575584165	2094.408426061774	147.5952931129121	1154.722267836534	1924.535139052054	1065.68477388871	1086.16440034369	2039.448668012058	318.2645939818702	1107.027363795894	2022.61787800491	328.8983559782889	1056.029454240838	2069.926999020809	393.6479136792688	1110.006832728321	2056.439042274585	401.5707288629437	1058.548863572579	2210.050934509363	673.2985037710871	1152.052240225403	2155.691749490917	638.8720186907696	1117.324016412378	2140.385361235125	755.3355591365219	1178.375455916149	2089.107395775115	721.4083259607719	1147.621034064764	
1129	7.52	2084.168366884915	1021.382418074041	907.42933695238	1533.770204426712	160.9557909396311	962.8576919938968	1573.527390042009	156.5624772458073	922.4200644501182	1571.887898593265	195.0032458986833	969.531837927806	2040.679378045932	1098.284157704081	884.8095559524957	1723.203924834156	51.83096907058242	1024.069285315478	1691.616734733394	59.45371721766123	915.9480920136779	1920.913457469885	1067.591774379326	983.9241660790476	1667.88684110588	234.6516219084268	920.4740165731665	1633.19930870348	257.3735592221528	951.028806253933	1701.811382837926	305.9169400420668	901.3844483704588	1670.786422493766	331.369860930793	936.4685796682306	1902.933517602132	662.7335133606579	859.1152205771758	1845.691412674977	675.0398803446042	902.8302784872133	1915.832600920863	772.3535535060417	849.6117243695884	1865.300990625485	783.1421006565996	896.9900180281373	2097.020315286765	1028.449408904781	1133.096183260515	2133.85170057949	189.7870391944578	1087.217459880224	1943.298974311075	174.7717972597433	1053.619881260229	1966.934263940716	189.0470905221456	1097.989711034356	1968.309100113274	218.3905915504117	1049.712243612508	2040.314235878359	1100.750501704982	1171.47095352722	2166.245574547851	123.7857946993922	1058.623988081729	2116.426873465863	141.5695322133841	1154.068268284869	1925.793549923927	1069.549898613777	1086.050536831134	2052.376312804387	308.7200435585715	1106.009822891222	2035.26935516613	318.707848818838	1054.956678712297	2078.731630713545	385.6562700864718	1109.528443979466	2065.259289259177	393.0586293264709	1057.93150817148	2208.963721606054	675.7573553374659	1152.605900797438	2154.181911774697	641.3816678140029	1118.479764440958	2139.886748695748	758.3350860339866	1178.684357667231	2088.310257163084	724.5762107678638	1148.253536854912	
1130	7.526666666666667	2086.062475322889	1024.059022882929	908.1930752269502	1526.378007186601	172.6010333087048	963.9556655105199	1565.514335563529	165.98898773931	923.2737562811523	1566.165553852831	204.6531903448861	970.2095745786303	2042.789904404967	1101.61817124494	885.45636439536	1710.298852729228	53.39128251733533	1023.920568201075	1678.212678456015	62.30073447231038	915.9723669828585	1922.454178721739	1070.733299641593	983.7029091960551	1660.600365705076	241.1345315484843	920.4289680320386	1626.582000856756	263.7450077135807	951.8112496999321	1694.89109731135	312.3344055945566	901.7221638307113	1664.624394333685	337.6453792425747	937.5377749519663	1900.624213679161	667.0377198715906	859.155903879588	1843.504212018901	680.1698565174441	902.8273865630135	1914.978039072378	776.4409696511217	849.7478623159503	1864.762853599028	787.9060055224419	897.2240522787184	2097.72167183108	1031.843519799296	1133.576283074866	2153.105129586796	185.2283390485754	1086.455042103822	1963.846589367307	159.1485348588239	1051.672872541462	1986.31808276896	174.7173519107209	1096.243971201691	1986.284944562609	204.1994873173308	1048.04302800455	2040.983933435489	1104.78980870892	1171.493875550134	2189.770979330969	121.3580624606328	1057.995209114544	2138.252156987604	136.008947865492	1153.200171888751	1927.046380310407	1073.056024580363	1085.949427004897	2065.315623163118	299.2690791155449	1105.317205039644	2047.804084421493	308.7344335270352	1054.280416186791	2087.601758818756	377.4987766980473	1109.440207330602	2073.963383647611	384.5129869197091	1057.785976166739	2207.390115033258	677.3185120908296	1153.299324238393	2152.223190255866	643.1112304802022	1119.641747658621	2139.077321459829	760.5533938998918	1179.032927845059	2087.15439139823	727.0712583509646	1148.848259020589	
1131	7.533333333333334	2087.891598074016	1026.633510760968	908.8626860248778	1519.911301177208	184.4267453406307	965.0913304350416	1558.225662389158	175.5768154079573	924.130174836519	1561.286951577175	214.3688627145727	970.8378837655782	2044.768996987802	1104.693088619385	886.0378999702784	1697.792221623421	55.40607582956669	1023.675890584782	1665.133384773085	65.46219406939375	916.0117791997989	1923.896777339365	1073.609166542383	983.4980736743888	1653.998298699885	247.4996083078797	920.3448404955852	1620.687102475502	270.0091274478201	952.555872691278	1688.77086564669	318.579764618494	902.0576909924985	1659.305994306347	343.7686528111878	938.6014258737314	1898.96494271511	670.9681842578661	859.2621868565933	1841.981313203119	684.8309538680611	902.9210332622742	1914.55108859271	780.1626316577671	849.8745310866215	1864.650748245468	792.2415981548893	897.4653054021205	2098.347429759749	1034.825752407737	1134.000544184898	2171.751996274886	181.0726396765355	1085.41965118456	1984.273124359046	144.2985354385041	1050.299585061563	2005.744414490332	161.0039544598773	1094.987551437998	2004.075316026529	190.5921852821897	1046.919801804064	2041.59055350344	1108.404606616264	1171.578376947564	2212.259612669034	119.598901061674	1056.776828832071	2159.785622900682	130.9589299328553	1152.02481607964	1928.282821879377	1076.159661692952	1085.861397445056	2078.169726825321	290.006224590579	1104.993167701822	2060.093420864888	299.0568562940582	1054.056979026856	2096.480965786198	369.268833447993	1109.791783910668	2082.45036333306	376.0139212034755	1058.179354846984	2205.371975289859	677.9962619888302	1154.154361132036	2149.880157104072	644.0871635544922	1120.785595088576	2137.96941224336	761.9831011484864	1179.457985500173	2085.679187634643	728.89001039273	1149.408410327522	
